<svg xmlns="http://www.w3.org/2000/svg" viewBox="0 0 721.35 139.076"><defs><style>.a{fill:#fff;}</style></defs><path class="a" d="M349.786,322.089c-.74-7.106,8.883-31.386,23.688-30.5,13.768.814,24.428,14.73,21.615,28.277-2.221,10.807-9.771,26.574-22.725,26.278-5.478-.148-13.176-3.479-17.1-7.18C353.487,337.264,350.526,329.121,349.786,322.089Zm31.756-6.662c.148-6.884-3.479-15.471-10.141-8.809-4.886,4.811-7.847,9.1-7.4,16.211.37,5.552,2.739,15.471,9.845,10.881C379.1,330.38,381.542,321.2,381.542,315.427Z" transform="translate(-146.065 -278.431)"/><path class="a" d="M416.776,335.618c-.3-4.219-3.627-16.729.74-19.616,2.591-1.7,6.144.888,8.291,2,5.626,2.887,3.775,2.147,9.253,1.036,6.07-1.258,11.77.888,16.211,5.108,2.221,2.147,3.849,7.4,6.218,8.809,4.219,2.369,5.7-2.665,9.919-4,18.8-6,27.981,18.58,29.239,32.422.518,5.4,1.925,16.581-.148,21.763-2.221,5.774-9.4,2.665-12.288-1.332-3.331-4.663-1.332-9.179-1.11-14.434.3-6.662.148-15.1-2.887-21.171-4-7.995-9.993-2-13.028,3.849-1.7,3.183-2.443,7.328-3.257,10.881-.666,3.035,0,9.327-1.851,11.844-4.145,5.552-13.028-.444-14.583-5.7-.962-3.331.37-7.7.37-11.1a86.98,86.98,0,0,0-1.629-15.767c-1.777-9.327-5.7-6.588-8.587.592-2.591,6.514-4.293,11.474-4.219,18.432.074,4.071,2.517,13.694.37,17.321-2.961,5.108-11.474.962-13.768-3.331-2.591-4.885-1.851-13.768-2.369-19.1C417.516,351.755,416.258,335.47,416.776,335.618Z" transform="translate(-163.089 -284.632)"/><path class="a" d="M1004.7,391.229c-9.771,7.4-19.468,15.027-32.274,10.437-10.363-3.627-18.728-11.7-21.689-22.355-6.218-22.133,16.655-41.379,38.048-35.309,10.807,3.035,21.393,14.36,27.537,23.391,7.18,10.511,8.217,25.612,5.7,37.974-2.295,11.474-9.179,22.5-21.245,24.65a46.809,46.809,0,0,1-19.246-.37c-5.626-1.406-13.842-2.887-18.58-6.218-5.7-3.923-6-11.1,1.851-12.51,6.662-1.184,13.324,4.663,19.69,5.774C999.3,419.431,1008.326,404.627,1004.7,391.229Zm-38.936-19.246c.074,6.366,4.515,16.285,11.918,17.1,8.068.888,14.583-8.883,14.879-15.767.3-6.292-4.293-18.21-12.214-17.173C974.646,356.882,966.207,366.431,965.763,371.983Z" transform="translate(-301.91 -291.758)"/><path class="a" d="M121.084,334.189c3.257-5.478,1.258-15.915,1.628-22.059.37-5.33-1.036-20.134,2.961-24.131,3.109-3.109,11.4-2.221,14.879.148,5.33,3.627,2,11.622,1.406,16.877-1.851,16.211-1.184,33.088-.74,49.373.3,10.363,9.919,36.049-5.256,40.046-2.591.666-5.626.666-7.847-1.184-2.147-1.777-1.777-8.587-3.479-9.327-3.183-1.406-9.993,6.366-13.028,7.476-11.622,4.367-23.91-1.851-31.312-11.029-8.291-10.289-7.032-25.834.444-36.345C90.142,330.562,106.724,330.192,121.084,334.189Zm-6.218,24.724c0-6.292-3.257-15.767-11.1-14.286-7.18,1.406-11.622,13.176-11.7,19.69,0,4.737,4.293,14.286,10.067,14.212C109.166,378.381,115.384,364.834,114.866,358.913Z" transform="translate(-74.589 -276.985)"/><path class="a" d="M760.209,366.237c-.518,9.179,1.851,28.721-13.324,24.65-6.736-1.851-5.552-6.736-4.738-12.288,1.184-7.92,2-16.433.444-24.353-.814-4.071-3.405-11.77-8.587-10.807-4.886.962-9.253,11.325-10.956,15.471a75.424,75.424,0,0,0-4.516,18.432c-.74,5.478.666,13.028-5.107,16.063-14.731,7.7-14.213-15.545-14.213-23.021,0-15.027.666-29.979.518-44.932a160.843,160.843,0,0,0-1.48-17.913c-.592-5.108.592-7.55,6-8.661,15.619-3.257,10.585,16.877,11.1,25.834.148,1.925-.222,8.883,2.147,9.845,2,.814,5.108-2.665,6.662-3.479,6-3.183,13.546-4.737,19.838-1.555C756.286,335.814,761.912,353.579,760.209,366.237Z" transform="translate(-236.558 -280.238)"/><path class="a" d="M533.2,329.018c0-12.288,4-26.944,14.879-34.124,4.886-3.257,12.658-4.219,18.506-4.293,7.624,0,11.918,2.665,15.471,9.031,8.439,15.1-.37,23.761-11.918,33.532-2.517,2.147-13.4,7.55-14.065,10.807-.962,5.108,8.291,8.291,11.992,8.513a14.934,14.934,0,0,0,13.028-6.44c2.961-4.145,3.553-8.883,9.253-9.7,15.619-2.221,7.254,17.543.888,22.8-9.919,8.068-27.019,8.809-37.9,3.109C539.2,354.926,533.2,344.637,533.2,329.018Zm16.285-5.848c2.665,6.588,5.552,3.183,9.993-.814,3.627-3.257,10.215-8.883,9.253-14.509-1.036-5.848-6.736-5.4-10.585-2.369C553.26,309.476,550.151,317.174,549.485,323.17Z" transform="translate(-193.719 -278.18)"/><path class="a" d="M285.593,287.8c5.256.518,34.2,5.626,23.984,16.433-4.96,5.33-10.659.592-15.1-2-4.293-2.517-14.139-2.517-10.215,4.959,2.517,4.811,14.731,7.624,19.394,10.141,6,3.257,13.028,6.588,17.692,11.622,9.327,10.215,7.476,24.8-2.887,33.606-8.883,7.55-22.947,8.217-33.311,3.775-7.773-3.331-25.686-17.84-20.209-27.981,2.369-4.367,11.844-5.034,15.4-2.147,4.145,3.331,3.627,10.585,7.476,14.8,9.4,10.067,26.13.888,19.542-12.214-7.032-13.842-26.649-13.324-36.938-23.243C256.058,301.716,269.974,288.836,285.593,287.8Z" transform="translate(-123.77 -277.452)"/><path class="a" d="M858.867,382.632c.37,5.848,3.331,16.8-4.516,18.728-6.292,1.554-12.14-3.479-13.842-9.1-2.517-8.143-2.517-18.062-4.219-26.5a127.5,127.5,0,0,0-2.887-13.028c-1.11-3.479-4.293-7.4-2.073-10.955,3.479-5.552,12.362-3.109,15.471,1.258,1.481,2.073,1.406,7.921,3.405,9.179,2.517,1.629,6.218-4.071,7.773-5.478,12.51-11.548,25.76-6.958,38.27,1.851,13.916,9.845,12.14,26.8,11.77,41.971-.148,5.848,1.629,12.584-5.7,14.064-6.366,1.332-12.51-3.331-12.954-9.253-.3-3.775,1.777-8.809,2.073-12.732a57.547,57.547,0,0,0-.3-12.362c-1.036-6.218-4.589-12.806-10.659-15.619-7.4-3.405-13.62,4.515-17.322,10.363C862.05,366.791,857.386,382.706,858.867,382.632Z" transform="translate(-270.963 -290.637)"/><path class="a" d="M178.8,386.8c1.258-12.51,8.957-25.02,22.725-24.5,11.844.37,23.317,8.587,24.5,20.8,1.184,12.51-10.067,28.425-23.688,27.018A26.047,26.047,0,0,1,178.8,386.8Zm15.4-2.221c.37,4.811,1.777,14.8,8.291,14.879,5.478.074,9.4-9.4,9.549-13.62C212.481,370.955,195.455,368.364,194.2,384.575Z" transform="translate(-101.659 -296.8)"/><path class="a" d="M631.895,283.206c-1.555-6.958,4-11.251,10.659-8.587,4.886,1.925,5.4,5.848,6.588,10.289,2,7.032,2.739,6.81,9.549,6.44,5.182-.3,12.066-.444,12.732,6.144.74,8.068-7.847,7.106-13.1,8.291-5.626,1.184-5.33,3.183-4.664,9.031.962,8.365,2.591,16.729,4,25.02,1.11,6.958,4.516,15.915,3.923,22.947-.518,5.478-3.923,7.18-9.179,6-7.92-1.851-8.069-9.253-9.179-15.989-1.258-7.7-2.369-15.4-3.405-23.169-.666-5.033.592-18.21-3.109-21.911s-10.807-.444-15.4-1.7c-5.256-1.48-12.658-7.7-6.44-12.88,3.627-3.035,10.289-.888,14.287-1.036C635.6,291.5,633.227,289.128,631.895,283.206Z" transform="translate(-214.319 -273.821)"/><path class="a" d="M800.1,350.3c8.957,0,8.587,18.58,9.845,25.094,1.036,5.33,6.588,18.58-2.517,18.58-9.623,0-8.661-16.433-9.475-22.873C796.991,364.66,790.625,351.484,800.1,350.3Z" transform="translate(-261.717 -293.688)"/><path class="a" d="M801.752,332.092c-.592,3.7-.962,6.81-5.478,6.81-2.147,0-5.182-1.48-5.922-3.553C787.688,328.613,798.421,328.613,801.752,332.092Z" transform="translate(-260.409 -288.361)"/></svg>