<?xml version="1.0" encoding="utf-8"?>
<!-- Generator: Adobe Illustrator 22.1.0, SVG Export Plug-In . SVG Version: 6.00 Build 0)  -->
<svg version="1.1" id="Layer_1" xmlns="http://www.w3.org/2000/svg" xmlns:xlink="http://www.w3.org/1999/xlink" x="0px" y="0px"
	 viewBox="0 0 38.3 39.9" style="enable-background:new 0 0 38.3 39.9;" xml:space="preserve">
<style type="text/css">
	.stroke{fill:none;stroke:#141414;stroke-width:3;stroke-miterlimit:10;}
	.txt{fill:#141414;}
</style>
<path class="stroke" d="M36.8,21.4c0.7,8.6-7.4,17.4-16,17c-9.3-0.4-19.6-8.9-19.3-18.7C1.8,11.5,6.8,2,16.4,1.6
	C29,0.9,37.4,5.5,36.8,21.4z"/>
<path class="txt" d="M15.8,23.5c-0.1-0.2-0.2-0.5-0.2-0.7c0-0.3-0.1-0.5-0.1-0.8c0-0.4,0-0.7,0.1-1.1c0.1-0.3,0.2-0.6,0.3-0.9
			c0.2-0.3,0.3-0.6,0.6-0.8c0.2-0.3,0.5-0.5,0.8-0.8c0.3-0.3,0.6-0.5,0.8-0.8c0.2-0.2,0.4-0.5,0.6-0.7c0.2-0.2,0.3-0.5,0.4-0.7
			c0.1-0.3,0.1-0.5,0.1-0.8c0-0.3,0-0.5-0.1-0.7c-0.1-0.2-0.2-0.4-0.4-0.6c-0.2-0.2-0.4-0.3-0.6-0.4c-0.3-0.1-0.5-0.1-0.8-0.1
			c-0.7,0-1.3,0.1-2.1,0.4c-0.7,0.3-1.4,0.7-2,1.3v-3.8c0.7-0.4,1.4-0.7,2.1-0.9c0.8-0.2,1.6-0.3,2.4-0.3c0.8,0,1.5,0.1,2.2,0.3
			c0.7,0.2,1.3,0.4,1.8,0.8c0.5,0.4,0.9,0.8,1.2,1.4c0.3,0.6,0.4,1.3,0.4,2.1c0,0.5-0.1,1-0.2,1.4c-0.1,0.4-0.3,0.8-0.5,1.2
			s-0.5,0.7-0.9,1.1c-0.3,0.3-0.7,0.7-1.2,1.1c-0.3,0.2-0.6,0.5-0.8,0.7c-0.2,0.2-0.4,0.4-0.6,0.6c-0.1,0.2-0.3,0.4-0.3,0.7
			c-0.1,0.2-0.1,0.5-0.1,0.8c0,0.2,0,0.4,0.1,0.6c0.1,0.2,0.1,0.4,0.2,0.5H15.8z M17.6,29c-0.7,0-1.2-0.2-1.7-0.6
			c-0.4-0.4-0.7-0.9-0.7-1.5c0-0.6,0.2-1.1,0.7-1.5c0.4-0.4,1-0.6,1.7-0.6c0.7,0,1.2,0.2,1.7,0.6c0.4,0.4,0.7,0.9,0.7,1.5
			c0,0.6-0.2,1.1-0.6,1.5C18.9,28.8,18.3,29,17.6,29z"/>
</svg>
